# xmcd CD database file
#
# Track frame offsets:
#	150
#	23573
#	44890
#	67032
#	88331
#	110108
#	132665
#	155658
#	179950
#	202731
#
# Disc length: 2992 seconds
#
# Revision: 0
# Processed by: cddbd v1.5.2PL0 Copyright (c) Steve Scherf et al.
# Submitted via: Hanso CD Extractor 
#
DISCID=9e0bae0a
DTITLE=Feliz Cumbe - Rompe Corazones
DYEAR=2000
DGENRE=Merengue
TTITLE0=Rompe Corazones
TTITLE1=Hamelo
TTITLE2=Mi Mente Esta Triste
TTITLE3=Pana Mia
TTITLE4=Thai Thai
TTITLE5=La J.
TTITLE6=Veneno
TTITLE7=Los Jabladores
TTITLE8=Que Fue Lo Que Yo Hice
TTITLE9=Fui Fua
EXTD=YEAR: 2000
EXTT0=
EXTT1=
EXTT2=
EXTT3=
EXTT4=
EXTT5=
EXTT6=
EXTT7=
EXTT8=
EXTT9=
PLAYORDER=
